<svg xmlns="http://www.w3.org/2000/svg" xmlns:xlink="http://www.w3.org/1999/xlink" width="543" zoomAndPan="magnify" viewBox="0 0 407.25 149.249994" height="199" preserveAspectRatio="xMidYMid meet" version="1.0"><defs><g/><clipPath id="3cd0485285"><path d="M 318.335938 88.320312 L 337.835938 88.320312 L 337.835938 107.824219 L 318.335938 107.824219 Z M 318.335938 88.320312 " clip-rule="nonzero"/></clipPath><clipPath id="5a43275cb6"><path d="M 328.085938 88.320312 C 322.699219 88.320312 318.335938 92.6875 318.335938 98.070312 C 318.335938 103.457031 322.699219 107.824219 328.085938 107.824219 C 333.472656 107.824219 337.835938 103.457031 337.835938 98.070312 C 337.835938 92.6875 333.472656 88.320312 328.085938 88.320312 Z M 328.085938 88.320312 " clip-rule="nonzero"/></clipPath></defs><g fill="#000000" fill-opacity="1"><g transform="translate(91.026749, 101.539734)"><g><path d="M 2.4375 -50.984375 L 14.34375 -50.984375 L 14.34375 -45.0625 C 14.90625 -47.238281 15.859375 -48.859375 17.203125 -49.921875 C 18.546875 -50.992188 20.445312 -51.53125 22.90625 -51.53125 C 24.90625 -51.53125 26.632812 -51.078125 28.09375 -50.171875 C 29.5625 -49.265625 30.597656 -48.023438 31.203125 -46.453125 C 32.222656 -48.210938 33.359375 -49.5 34.609375 -50.3125 C 35.859375 -51.125 37.597656 -51.53125 39.828125 -51.53125 C 43.828125 -51.53125 46.601562 -50.3125 48.15625 -47.875 C 49.707031 -45.4375 50.484375 -41.894531 50.484375 -37.25 L 50.34375 0 L 38.09375 0 L 38.09375 -37.46875 C 38.09375 -40.757812 37.257812 -42.40625 35.59375 -42.40625 C 34.425781 -42.40625 33.585938 -41.835938 33.078125 -40.703125 C 32.566406 -39.566406 32.3125 -38.207031 32.3125 -36.625 L 32.3125 0 L 20.125 0 L 20.125 -37.46875 C 20.125 -38.90625 19.972656 -40.0625 19.671875 -40.9375 C 19.367188 -41.820312 18.734375 -42.265625 17.765625 -42.265625 C 16.503906 -42.265625 15.617188 -41.648438 15.109375 -40.421875 C 14.597656 -39.191406 14.34375 -37.71875 14.34375 -36 L 14.34375 0 L 2.4375 0 Z M 2.4375 -50.984375 "/></g></g></g><g fill="#000000" fill-opacity="1"><g transform="translate(139.987809, 101.539734)"><g><path d="M 2.4375 0 L 2.4375 -60.171875 L 14.484375 -60.171875 L 14.484375 -33.421875 L 20.328125 -50.984375 L 32.9375 -50.984375 L 25.28125 -28.828125 L 35.03125 0 L 22.078125 0 L 14.484375 -24.03125 L 14.484375 0 Z M 2.4375 0 "/></g></g></g><g fill="#000000" fill-opacity="1"><g transform="translate(170.353336, 101.539734)"><g><path d="M 1.46875 0.765625 L 7.3125 0.765625 C 8.144531 0.765625 8.5625 0.414062 8.5625 -0.28125 C 8.5625 -0.601562 8.539062 -0.859375 8.5 -1.046875 L 0.5625 -50.984375 L 12.1875 -50.984375 L 14.484375 -26.109375 L 15.59375 -13.4375 L 16.921875 -26.109375 L 19.640625 -50.984375 L 31.34375 -50.984375 L 21.859375 2.640625 C 21.535156 4.640625 20.875 6.113281 19.875 7.0625 C 18.882812 8.019531 17.320312 8.5 15.1875 8.5 L 1.46875 8.5 Z M 1.46875 0.765625 "/></g></g></g><g fill="#000000" fill-opacity="1"><g transform="translate(198.629486, 101.539734)"><g><path d="M 17.765625 0.5625 C 12.191406 0.5625 8.171875 -0.851562 5.703125 -3.6875 C 3.242188 -6.519531 2.015625 -10.863281 2.015625 -16.71875 L 2.015625 -32.453125 C 2.015625 -36.859375 2.488281 -40.441406 3.4375 -43.203125 C 4.394531 -45.972656 6 -48.050781 8.25 -49.4375 C 10.5 -50.832031 13.625 -51.53125 17.625 -51.53125 C 21.988281 -51.53125 25.539062 -50.390625 28.28125 -48.109375 C 31.019531 -45.835938 32.390625 -42.660156 32.390625 -38.578125 L 32.390625 -30.78125 L 19.984375 -30.78125 L 19.984375 -37.953125 C 19.984375 -39.296875 19.796875 -40.328125 19.421875 -41.046875 C 19.054688 -41.765625 18.335938 -42.125 17.265625 -42.125 C 15.273438 -42.125 14.28125 -40.710938 14.28125 -37.890625 L 14.28125 -13.15625 C 14.28125 -12 14.519531 -11.015625 15 -10.203125 C 15.488281 -9.390625 16.222656 -8.984375 17.203125 -8.984375 C 18.171875 -8.984375 18.898438 -9.375 19.390625 -10.15625 C 19.878906 -10.945312 20.101562 -11.972656 20.0625 -13.234375 L 19.984375 -21.796875 L 32.390625 -21.796875 L 32.390625 -12.890625 C 32.390625 -8.703125 31.03125 -5.410156 28.3125 -3.015625 C 25.59375 -0.628906 22.078125 0.5625 17.765625 0.5625 Z M 17.765625 0.5625 "/></g></g></g><g fill="#000000" fill-opacity="1"><g transform="translate(228.995012, 101.539734)"><g><path d="M 17.265625 0.5625 C 7.097656 0.5625 2.015625 -4.707031 2.015625 -15.25 L 2.015625 -35.71875 C 2.015625 -40.550781 3.375 -44.394531 6.09375 -47.25 C 8.8125 -50.101562 12.535156 -51.53125 17.265625 -51.53125 C 22.003906 -51.53125 25.726562 -50.101562 28.4375 -47.25 C 31.15625 -44.394531 32.515625 -40.550781 32.515625 -35.71875 L 32.515625 -15.25 C 32.515625 -4.707031 27.429688 0.5625 17.265625 0.5625 Z M 17.265625 -8.84375 C 18.242188 -8.84375 18.960938 -9.191406 19.421875 -9.890625 C 19.890625 -10.585938 20.125 -11.539062 20.125 -12.75 L 20.125 -37.671875 C 20.125 -40.640625 19.171875 -42.125 17.265625 -42.125 C 15.367188 -42.125 14.421875 -40.640625 14.421875 -37.671875 L 14.421875 -12.75 C 14.421875 -11.539062 14.648438 -10.585938 15.109375 -9.890625 C 15.578125 -9.191406 16.296875 -8.84375 17.265625 -8.84375 Z M 17.265625 -8.84375 "/></g></g></g><g fill="#000000" fill-opacity="1"><g transform="translate(259.778426, 101.539734)"><g><path d="M 2.4375 -50.984375 L 14.625 -50.984375 L 14.625 -45.34375 C 15.226562 -47.332031 16.285156 -48.875 17.796875 -49.96875 C 19.304688 -51.0625 21.175781 -51.609375 23.40625 -51.609375 L 23.40625 -41.4375 C 21.6875 -41.4375 19.789062 -41.191406 17.71875 -40.703125 C 15.65625 -40.210938 14.625 -39.644531 14.625 -39 L 14.625 0 L 2.4375 0 Z M 2.4375 -50.984375 "/></g></g></g><g fill="#000000" fill-opacity="1"><g transform="translate(279.905972, 101.539734)"><g><path d="M 2.4375 -50.984375 L 14.828125 -50.984375 L 14.828125 -48.265625 C 16.597656 -50.441406 19.035156 -51.53125 22.140625 -51.53125 C 26.085938 -51.53125 28.835938 -50.207031 30.390625 -47.5625 C 31.953125 -44.914062 32.734375 -41.25 32.734375 -36.5625 L 32.734375 -17.6875 C 32.734375 -13.695312 32.5 -10.4375 32.03125 -7.90625 C 31.570312 -5.375 30.550781 -3.328125 28.96875 -1.765625 C 27.394531 -0.210938 25.003906 0.5625 21.796875 0.5625 C 18.734375 0.5625 16.410156 -0.296875 14.828125 -2.015625 L 14.828125 10.171875 L 2.4375 10.171875 Z M 17.765625 -8.90625 C 18.878906 -8.90625 19.597656 -9.414062 19.921875 -10.4375 C 20.242188 -11.46875 20.40625 -12.957031 20.40625 -14.90625 L 20.40625 -36.5625 C 20.40625 -38.320312 20.242188 -39.664062 19.921875 -40.59375 C 19.597656 -41.53125 18.851562 -42 17.6875 -42 C 15.78125 -42 14.828125 -40.234375 14.828125 -36.703125 L 14.828125 -14.34375 C 14.828125 -12.625 15.023438 -11.285156 15.421875 -10.328125 C 15.816406 -9.378906 16.597656 -8.90625 17.765625 -8.90625 Z M 17.765625 -8.90625 "/></g></g></g><g clip-path="url(#3cd0485285)"><g clip-path="url(#5a43275cb6)"><path fill="#000000" d="M 318.335938 88.320312 L 337.835938 88.320312 L 337.835938 107.824219 L 318.335938 107.824219 Z M 318.335938 88.320312 " fill-opacity="1" fill-rule="nonzero"/></g></g></svg>