<svg xmlns="http://www.w3.org/2000/svg" xmlns:xlink="http://www.w3.org/1999/xlink" width="380" zoomAndPan="magnify" viewBox="0 0 285 119.999999" height="160" preserveAspectRatio="xMidYMid meet" version="1.0"><defs><g/><clipPath id="efdd88f803"><path d="M 8.121094 8.378906 L 110.871094 8.378906 L 110.871094 111.128906 L 8.121094 111.128906 Z M 8.121094 8.378906 " clip-rule="nonzero"/></clipPath></defs><g clip-path="url(#efdd88f803)"><path fill="#ffffff" d="M 110.832031 55.804688 C 110.832031 55.765625 110.828125 55.730469 110.816406 55.695312 C 110.8125 55.695312 110.816406 55.691406 110.8125 55.691406 L 100.574219 28.894531 C 100.574219 28.890625 100.570312 28.890625 100.566406 28.886719 C 100.550781 28.847656 100.527344 28.808594 100.492188 28.78125 L 77.972656 10.929688 C 77.9375 10.902344 77.894531 10.882812 77.847656 10.875 C 77.84375 10.875 77.839844 10.875 77.835938 10.875 L 59.457031 8.382812 C 59.421875 8.378906 59.382812 8.378906 59.347656 8.390625 L 50.585938 10.871094 L 50.339844 10.871094 C 50.289062 10.871094 50.242188 10.882812 50.199219 10.910156 L 49.976562 11.042969 L 28.414062 17.148438 C 28.40625 17.152344 28.402344 17.160156 28.398438 17.160156 C 28.367188 17.171875 28.339844 17.1875 28.316406 17.207031 C 28.308594 17.214844 28.296875 17.222656 28.289062 17.230469 C 28.285156 17.234375 28.277344 17.238281 28.273438 17.246094 L 9.390625 41.667969 C 9.386719 41.675781 9.386719 41.6875 9.378906 41.695312 C 9.375 41.703125 9.367188 41.714844 9.359375 41.726562 C 9.355469 41.734375 9.355469 41.742188 9.355469 41.75 C 9.347656 41.761719 9.347656 41.777344 9.34375 41.792969 C 9.34375 41.800781 9.339844 41.808594 9.335938 41.820312 L 8.148438 63.300781 C 8.148438 63.320312 8.148438 63.339844 8.152344 63.355469 L 9.890625 74.222656 C 9.894531 74.234375 9.902344 74.246094 9.90625 74.261719 C 9.910156 74.269531 9.910156 74.28125 9.910156 74.289062 C 9.914062 74.292969 9.914062 74.292969 9.917969 74.296875 C 9.917969 74.296875 9.917969 74.300781 9.917969 74.304688 L 18.710938 90.988281 C 18.726562 91.019531 18.746094 91.042969 18.769531 91.066406 L 29.082031 100.148438 C 29.097656 100.167969 29.117188 100.183594 29.136719 100.199219 L 41.058594 108.203125 C 41.089844 108.226562 41.128906 108.242188 41.167969 108.246094 L 59.875 111.144531 C 59.878906 111.144531 59.878906 111.148438 59.878906 111.148438 C 59.894531 111.148438 59.90625 111.148438 59.921875 111.148438 C 59.941406 111.148438 59.960938 111.148438 59.976562 111.144531 C 59.976562 111.144531 59.980469 111.144531 59.980469 111.144531 C 59.980469 111.144531 59.984375 111.144531 59.984375 111.140625 C 59.988281 111.144531 59.988281 111.140625 59.988281 111.140625 C 59.988281 111.140625 59.988281 111.140625 59.992188 111.140625 C 59.992188 111.140625 59.992188 111.140625 59.996094 111.140625 L 90.5625 102.238281 C 90.574219 102.234375 90.578125 102.222656 90.589844 102.21875 C 90.617188 102.207031 90.640625 102.1875 90.664062 102.164062 C 90.675781 102.15625 90.691406 102.152344 90.699219 102.140625 L 109.296875 77.703125 C 109.324219 77.664062 109.335938 77.621094 109.34375 77.574219 C 109.34375 77.570312 109.347656 77.566406 109.351562 77.558594 Z M 108.828125 77.328125 L 100.785156 79.355469 L 110.1875 57.351562 Z M 76.191406 74.210938 L 46.558594 63.820312 L 68.90625 47.78125 Z M 68.910156 46.914062 L 46.621094 32.386719 L 75.601562 24.125 Z M 68.589844 47.347656 L 46.25 63.378906 L 46.25 32.785156 Z M 45.710938 63.472656 L 20.359375 51.070312 L 45.710938 32.816406 Z M 51.203125 93.203125 L 27.035156 79.707031 L 45.800781 64.398438 Z M 46.332031 64.3125 L 76.03125 74.722656 L 51.757812 93.238281 Z M 76.355469 75.152344 L 77.921875 97.289062 L 52.242188 93.542969 Z M 76.699219 74.027344 L 69.429688 47.644531 L 94.15625 50.105469 Z M 94.5 50.546875 L 99.984375 79.398438 L 77.050781 74.460938 Z M 100.421875 78.828125 L 95 50.304688 L 110.203125 55.9375 Z M 94.539062 49.269531 L 76.617188 24.144531 L 99.988281 29.195312 Z M 94.085938 49.558594 L 69.414062 47.101562 L 76.097656 24.339844 Z M 46.335938 31.910156 L 50.53125 11.53125 L 75.25 23.667969 Z M 45.777344 31.941406 L 26.816406 25.621094 L 49.949219 11.6875 Z M 45.398438 32.378906 L 20.277344 50.46875 L 26.371094 26.039062 Z M 19.6875 50.613281 L 9.996094 41.828125 L 25.691406 26.546875 Z M 25.9375 25.550781 L 12.152344 38.976562 L 27.859375 18.660156 Z M 19.515625 51.1875 L 10.40625 72.894531 L 9.886719 42.449219 Z M 19.765625 51.984375 L 26.183594 79.335938 L 10.515625 74.015625 Z M 20.230469 51.605469 L 45.488281 63.960938 L 26.722656 79.265625 Z M 50.875 93.632812 L 29.507812 99.628906 L 26.898438 80.246094 Z M 51.429688 94.035156 L 59.390625 110.40625 L 30.167969 100.003906 Z M 60.023438 110.476562 L 52.035156 94.054688 L 77.519531 97.773438 Z M 78.445312 97.070312 L 76.882812 74.972656 L 99.71875 79.890625 Z M 99.628906 80.65625 L 90.339844 101.640625 L 78.753906 97.511719 Z M 100.515625 79.976562 L 108.402344 77.988281 L 91.660156 99.996094 Z M 94.972656 49.71875 L 100.367188 29.859375 L 110.097656 55.328125 Z M 78.003906 11.640625 L 99.253906 28.484375 L 76.296875 23.523438 Z M 59.441406 8.921875 L 73.824219 10.871094 L 52.558594 10.871094 Z M 77.492188 11.40625 L 75.78125 23.328125 L 51.496094 11.40625 Z M 26.621094 25.113281 L 28.707031 17.625 L 48.230469 12.097656 Z M 8.6875 63.300781 L 9.460938 49.273438 L 9.824219 70.394531 Z M 19.164062 90.695312 L 12.03125 77.15625 L 27.550781 98.085938 Z M 10.886719 74.710938 L 26.3125 79.949219 L 28.878906 98.972656 Z M 31.203125 100.941406 L 57.152344 110.179688 L 41.308594 107.726562 Z M 78.253906 97.902344 L 89.617188 101.953125 L 61.328125 110.191406 Z M 78.253906 97.902344 " fill-opacity="1" fill-rule="nonzero"/></g><g fill="#ffffff" fill-opacity="1"><g transform="translate(123.25052, 67.545958)"><g><path d="M 26.164062 -19.066406 L 30.785156 -19.066406 C 29.191406 -27.046875 22.261719 -29.863281 16.507812 -29.863281 C 8.230469 -29.863281 1.765625 -23.519531 1.765625 -14.65625 C 1.765625 -5.839844 8.105469 0.503906 16.507812 0.503906 C 21.964844 0.503906 28.097656 -3.484375 30.15625 -9.199219 L 30.15625 -9.15625 C 30.574219 -10.164062 30.785156 -11.84375 30.996094 -14.363281 L 14.824219 -14.363281 L 14.824219 -10.039062 L 25.914062 -10.039062 C 24.148438 -5.671875 20.203125 -3.652344 16.507812 -3.652344 C 10.625 -3.652344 6.089844 -8.316406 6.089844 -14.65625 C 6.089844 -20.957031 10.625 -25.535156 16.507812 -25.535156 C 20.328125 -25.535156 24.949219 -23.898438 26.164062 -19.066406 Z M 26.164062 -19.066406 "/></g></g></g><g fill="#ffffff" fill-opacity="1"><g transform="translate(156.472511, 67.545958)"><g><path d="M 7.222656 -19.90625 L 7.222656 -22.679688 L 3.148438 -22.679688 L 3.148438 0 L 7.222656 0 L 7.222656 -12.304688 C 7.222656 -16.464844 10.414062 -19.53125 14.238281 -19.53125 C 14.910156 -19.53125 15.625 -19.445312 16.339844 -19.234375 L 16.339844 -22.847656 C 15.414062 -23.058594 14.53125 -23.183594 13.648438 -23.183594 C 11.128906 -23.183594 8.863281 -22.175781 7.222656 -19.90625 Z M 7.222656 -19.90625 "/></g></g></g><g fill="#ffffff" fill-opacity="1"><g transform="translate(174.112513, 67.545958)"><g><path d="M 19.90625 -2.980469 L 19.90625 0 L 23.8125 0 L 23.8125 -22.933594 L 19.699219 -22.933594 L 19.699219 -10.375 C 19.699219 -6.382812 17.347656 -3.316406 13.019531 -3.316406 C 8.0625 -3.316406 6.972656 -6.257812 6.972656 -10.5 L 6.972656 -22.933594 L 2.855469 -22.933594 L 2.855469 -10.5 C 2.855469 -3.988281 5.839844 0.335938 12.726562 0.335938 C 15.664062 0.335938 18.226562 -0.503906 19.90625 -2.980469 Z M 19.90625 -2.980469 "/></g></g></g><g fill="#ffffff" fill-opacity="1"><g transform="translate(201.160508, 67.545958)"><g><path d="M 7.390625 -19.78125 L 7.390625 -29.398438 L 3.277344 -29.398438 L 3.277344 0 L 7.390625 0 L 7.390625 -3.066406 C 9.03125 -0.589844 12.136719 0.335938 14.953125 0.378906 C 22.890625 0.378906 26.710938 -5.207031 26.710938 -11.464844 C 26.710938 -17.597656 22.722656 -23.101562 15.035156 -23.101562 C 12.222656 -23.101562 9.367188 -22.46875 7.390625 -19.78125 Z M 7.390625 -11.382812 C 7.390625 -16.800781 11.214844 -19.488281 15.035156 -19.488281 C 20.074219 -19.488281 22.597656 -15.457031 22.597656 -11.382812 C 22.597656 -7.265625 20.035156 -3.277344 14.992188 -3.277344 C 11.214844 -3.277344 7.390625 -5.921875 7.390625 -11.382812 Z M 7.390625 -11.382812 "/></g></g><g transform="translate(229.762507, 67.545958)"><g><path d="M 3.148438 0 L 7.265625 0 L 7.265625 -29.398438 L 3.148438 -29.398438 Z M 3.148438 0 "/></g></g><g transform="translate(240.178507, 67.545958)"><g><path d="M 26.671875 -11.339844 C 26.671875 -19.152344 20.621094 -23.101562 14.488281 -23.101562 C 8.316406 -23.101562 2.183594 -19.195312 2.183594 -11.339844 C 2.183594 -3.527344 8.273438 0.421875 14.363281 0.421875 C 20.539062 0.421875 26.671875 -3.484375 26.671875 -11.339844 Z M 6.300781 -11.339844 C 6.300781 -16.757812 10.375 -19.445312 14.488281 -19.445312 C 18.523438 -19.445312 22.597656 -16.714844 22.597656 -11.339844 C 22.597656 -6.007812 18.523438 -3.277344 14.449219 -3.277344 C 10.375 -3.277344 6.300781 -5.964844 6.300781 -11.339844 Z M 6.300781 -11.339844 "/></g></g></g><g fill="#ffffff" fill-opacity="1"><g transform="translate(128.873051, 88.314856)"><g><path d="M 3.9375 -8.640625 C 5.050781 -8.640625 6.054688 -8.34375 6.953125 -7.75 L 6.34375 -6.484375 C 5.46875 -7.015625 4.628906 -7.28125 3.828125 -7.28125 C 3.398438 -7.28125 3.0625 -7.203125 2.8125 -7.046875 C 2.5625 -6.890625 2.4375 -6.664062 2.4375 -6.375 C 2.4375 -6.09375 2.550781 -5.851562 2.78125 -5.65625 C 3.007812 -5.457031 3.296875 -5.3125 3.640625 -5.21875 C 3.984375 -5.125 4.351562 -5.003906 4.75 -4.859375 C 5.15625 -4.710938 5.523438 -4.5625 5.859375 -4.40625 C 6.203125 -4.25 6.488281 -4 6.71875 -3.65625 C 6.945312 -3.3125 7.0625 -2.898438 7.0625 -2.421875 C 7.0625 -1.671875 6.757812 -1.070312 6.15625 -0.625 C 5.550781 -0.175781 4.773438 0.046875 3.828125 0.046875 C 3.171875 0.046875 2.535156 -0.0703125 1.921875 -0.3125 C 1.304688 -0.5625 0.769531 -0.894531 0.3125 -1.3125 L 0.9375 -2.5625 C 1.375 -2.15625 1.847656 -1.84375 2.359375 -1.625 C 2.878906 -1.414062 3.375 -1.3125 3.84375 -1.3125 C 4.351562 -1.3125 4.75 -1.398438 5.03125 -1.578125 C 5.3125 -1.765625 5.453125 -2.023438 5.453125 -2.359375 C 5.453125 -2.648438 5.335938 -2.894531 5.109375 -3.09375 C 4.878906 -3.289062 4.59375 -3.4375 4.25 -3.53125 C 3.90625 -3.625 3.53125 -3.738281 3.125 -3.875 C 2.726562 -4.007812 2.359375 -4.148438 2.015625 -4.296875 C 1.671875 -4.453125 1.382812 -4.695312 1.15625 -5.03125 C 0.9375 -5.363281 0.828125 -5.769531 0.828125 -6.25 C 0.828125 -6.976562 1.109375 -7.554688 1.671875 -7.984375 C 2.242188 -8.421875 3 -8.640625 3.9375 -8.640625 Z M 3.9375 -8.640625 "/></g></g></g><g fill="#ffffff" fill-opacity="1"><g transform="translate(139.334855, 88.314856)"><g><path d="M 1.71875 -7.359375 C 2.59375 -8.191406 3.671875 -8.609375 4.953125 -8.609375 C 6.242188 -8.609375 7.320312 -8.191406 8.1875 -7.359375 C 9.0625 -6.535156 9.5 -5.507812 9.5 -4.28125 C 9.5 -3.0625 9.0625 -2.03125 8.1875 -1.1875 C 7.320312 -0.351562 6.242188 0.0625 4.953125 0.0625 C 3.671875 0.0625 2.59375 -0.351562 1.71875 -1.1875 C 0.851562 -2.03125 0.421875 -3.0625 0.421875 -4.28125 C 0.421875 -5.507812 0.851562 -6.535156 1.71875 -7.359375 Z M 4.96875 -7.3125 C 4.125 -7.3125 3.398438 -7.019531 2.796875 -6.4375 C 2.191406 -5.851562 1.890625 -5.132812 1.890625 -4.28125 C 1.890625 -3.4375 2.191406 -2.71875 2.796875 -2.125 C 3.410156 -1.53125 4.132812 -1.234375 4.96875 -1.234375 C 5.8125 -1.234375 6.53125 -1.53125 7.125 -2.125 C 7.726562 -2.71875 8.03125 -3.4375 8.03125 -4.28125 C 8.03125 -5.132812 7.726562 -5.851562 7.125 -6.4375 C 6.53125 -7.019531 5.8125 -7.3125 4.96875 -7.3125 Z M 4.96875 -7.3125 "/></g></g></g><g fill="#ffffff" fill-opacity="1"><g transform="translate(152.098914, 88.314856)"><g><path d="M 2.578125 -1.3125 L 6.28125 -1.3125 L 6.28125 0 L 1.125 0 L 1.125 -8.578125 L 2.578125 -8.578125 Z M 2.578125 -1.3125 "/></g></g></g><g fill="#ffffff" fill-opacity="1"><g transform="translate(161.483063, 88.314856)"><g><path d="M 8.421875 -8.578125 L 8.421875 -3.546875 C 8.421875 -2.429688 8.085938 -1.550781 7.421875 -0.90625 C 6.765625 -0.257812 5.851562 0.0625 4.6875 0.0625 C 3.53125 0.0625 2.617188 -0.257812 1.953125 -0.90625 C 1.285156 -1.550781 0.953125 -2.429688 0.953125 -3.546875 L 0.953125 -8.578125 L 2.40625 -8.578125 L 2.40625 -3.546875 C 2.40625 -2.828125 2.609375 -2.257812 3.015625 -1.84375 C 3.429688 -1.4375 3.992188 -1.234375 4.703125 -1.234375 C 5.398438 -1.234375 5.953125 -1.4375 6.359375 -1.84375 C 6.765625 -2.257812 6.96875 -2.828125 6.96875 -3.546875 L 6.96875 -8.578125 Z M 8.421875 -8.578125 "/></g></g></g><g fill="#ffffff" fill-opacity="1"><g transform="translate(173.683808, 88.314856)"><g><path d="M 6.984375 -7.28125 L 4.265625 -7.28125 L 4.265625 0 L 2.8125 0 L 2.8125 -7.28125 L 0.109375 -7.28125 L 0.109375 -8.578125 L 6.984375 -8.578125 Z M 6.984375 -7.28125 "/></g></g></g><g fill="#ffffff" fill-opacity="1"><g transform="translate(183.619025, 88.314856)"><g><path d="M 2.578125 0 L 1.125 0 L 1.125 -8.578125 L 2.578125 -8.578125 Z M 2.578125 0 "/></g></g></g><g fill="#ffffff" fill-opacity="1"><g transform="translate(190.162087, 88.314856)"><g><path d="M 1.71875 -7.359375 C 2.59375 -8.191406 3.671875 -8.609375 4.953125 -8.609375 C 6.242188 -8.609375 7.320312 -8.191406 8.1875 -7.359375 C 9.0625 -6.535156 9.5 -5.507812 9.5 -4.28125 C 9.5 -3.0625 9.0625 -2.03125 8.1875 -1.1875 C 7.320312 -0.351562 6.242188 0.0625 4.953125 0.0625 C 3.671875 0.0625 2.59375 -0.351562 1.71875 -1.1875 C 0.851562 -2.03125 0.421875 -3.0625 0.421875 -4.28125 C 0.421875 -5.507812 0.851562 -6.535156 1.71875 -7.359375 Z M 4.96875 -7.3125 C 4.125 -7.3125 3.398438 -7.019531 2.796875 -6.4375 C 2.191406 -5.851562 1.890625 -5.132812 1.890625 -4.28125 C 1.890625 -3.4375 2.191406 -2.71875 2.796875 -2.125 C 3.410156 -1.53125 4.132812 -1.234375 4.96875 -1.234375 C 5.8125 -1.234375 6.53125 -1.53125 7.125 -2.125 C 7.726562 -2.71875 8.03125 -3.4375 8.03125 -4.28125 C 8.03125 -5.132812 7.726562 -5.851562 7.125 -6.4375 C 6.53125 -7.019531 5.8125 -7.3125 4.96875 -7.3125 Z M 4.96875 -7.3125 "/></g></g></g><g fill="#ffffff" fill-opacity="1"><g transform="translate(202.926145, 88.314856)"><g><path d="M 8.5625 0 L 7.140625 0 L 2.578125 -6.15625 L 2.578125 0 L 1.125 0 L 1.125 -8.578125 L 2.546875 -8.578125 L 7.140625 -2.40625 L 7.140625 -8.578125 L 8.5625 -8.578125 Z M 8.5625 0 "/></g></g></g><g fill="#ffffff" fill-opacity="1"><g transform="translate(215.469778, 88.314856)"><g><path d="M 3.9375 -8.640625 C 5.050781 -8.640625 6.054688 -8.34375 6.953125 -7.75 L 6.34375 -6.484375 C 5.46875 -7.015625 4.628906 -7.28125 3.828125 -7.28125 C 3.398438 -7.28125 3.0625 -7.203125 2.8125 -7.046875 C 2.5625 -6.890625 2.4375 -6.664062 2.4375 -6.375 C 2.4375 -6.09375 2.550781 -5.851562 2.78125 -5.65625 C 3.007812 -5.457031 3.296875 -5.3125 3.640625 -5.21875 C 3.984375 -5.125 4.351562 -5.003906 4.75 -4.859375 C 5.15625 -4.710938 5.523438 -4.5625 5.859375 -4.40625 C 6.203125 -4.25 6.488281 -4 6.71875 -3.65625 C 6.945312 -3.3125 7.0625 -2.898438 7.0625 -2.421875 C 7.0625 -1.671875 6.757812 -1.070312 6.15625 -0.625 C 5.550781 -0.175781 4.773438 0.046875 3.828125 0.046875 C 3.171875 0.046875 2.535156 -0.0703125 1.921875 -0.3125 C 1.304688 -0.5625 0.769531 -0.894531 0.3125 -1.3125 L 0.9375 -2.5625 C 1.375 -2.15625 1.847656 -1.84375 2.359375 -1.625 C 2.878906 -1.414062 3.375 -1.3125 3.84375 -1.3125 C 4.351562 -1.3125 4.75 -1.398438 5.03125 -1.578125 C 5.3125 -1.765625 5.453125 -2.023438 5.453125 -2.359375 C 5.453125 -2.648438 5.335938 -2.894531 5.109375 -3.09375 C 4.878906 -3.289062 4.59375 -3.4375 4.25 -3.53125 C 3.90625 -3.625 3.53125 -3.738281 3.125 -3.875 C 2.726562 -4.007812 2.359375 -4.148438 2.015625 -4.296875 C 1.671875 -4.453125 1.382812 -4.695312 1.15625 -5.03125 C 0.9375 -5.363281 0.828125 -5.769531 0.828125 -6.25 C 0.828125 -6.976562 1.109375 -7.554688 1.671875 -7.984375 C 2.242188 -8.421875 3 -8.640625 3.9375 -8.640625 Z M 3.9375 -8.640625 "/></g></g></g><g fill="#ffffff" fill-opacity="1"><g transform="translate(32.564209, 84.928913)"><g><path d="M 49.296875 0 L 45.5 0 C 44.882812 0 44.578125 -0.285156 44.578125 -0.859375 L 44.65625 -5.78125 C 40.457031 -1.59375 34.867188 0.5 27.890625 0.5 C 20.921875 0.5 15.097656 -1.925781 10.421875 -6.78125 C 5.753906 -11.644531 3.421875 -18.03125 3.421875 -25.9375 C 3.421875 -31.21875 4.597656 -35.859375 6.953125 -39.859375 C 9.316406 -43.859375 12.320312 -46.832031 15.96875 -48.78125 C 19.613281 -50.738281 23.554688 -51.71875 27.796875 -51.71875 C 35.078125 -51.71875 40.3125 -49.457031 43.5 -44.9375 L 43.4375 -50.4375 C 43.34375 -51.007812 43.628906 -51.296875 44.296875 -51.296875 L 48.296875 -51.296875 C 48.910156 -51.296875 49.21875 -51.007812 49.21875 -50.4375 L 49.21875 -35.71875 C 49.21875 -35.144531 48.910156 -34.859375 48.296875 -34.859375 L 43.796875 -34.859375 C 43.222656 -34.859375 42.9375 -35.144531 42.9375 -35.71875 L 42.9375 -36.578125 C 42.9375 -38.671875 41.492188 -40.738281 38.609375 -42.78125 C 35.734375 -44.832031 32.054688 -45.859375 27.578125 -45.859375 C 23.097656 -45.859375 19.0625 -44.015625 15.46875 -40.328125 C 11.875 -36.640625 10.078125 -31.707031 10.078125 -25.53125 C 10.078125 -19.363281 11.882812 -14.484375 15.5 -10.890625 C 19.125 -7.296875 23.171875 -5.5 27.640625 -5.5 C 32.117188 -5.5 35.65625 -6.210938 38.25 -7.640625 C 40.84375 -9.066406 42.785156 -10.757812 44.078125 -12.71875 L 44.078125 -18.28125 L 30.796875 -18.28125 C 30.222656 -18.28125 29.9375 -18.59375 29.9375 -19.21875 L 29.9375 -22.5 C 29.9375 -23.070312 30.222656 -23.359375 30.796875 -23.359375 L 49.296875 -23.359375 C 49.867188 -23.359375 50.15625 -23.070312 50.15625 -22.5 L 50.15625 -0.859375 C 50.15625 -0.285156 49.867188 0 49.296875 0 Z M 49.296875 0 "/></g></g></g></svg>