<svg xmlns="http://www.w3.org/2000/svg" xmlns:xlink="http://www.w3.org/1999/xlink" width="413" zoomAndPan="magnify" viewBox="0 0 309.75 119.999999" height="160" preserveAspectRatio="xMidYMid meet" version="1.0"><defs><g/><clipPath id="2269f7c401"><path d="M 8.113281 8.421875 L 110.78125 8.421875 L 110.78125 111.089844 L 8.113281 111.089844 Z M 8.113281 8.421875 " clip-rule="nonzero"/></clipPath></defs><g fill="#ffffff" fill-opacity="1"><g transform="translate(124.087875, 67.545072)"><g><path d="M 26.140625 -19.046875 C 25.753906 -20.671875 25.035156 -21.953125 23.984375 -22.890625 C 22.929688 -23.828125 21.738281 -24.5 20.40625 -24.90625 C 19.082031 -25.3125 17.78125 -25.515625 16.5 -25.515625 C 14.539062 -25.515625 12.773438 -25.046875 11.203125 -24.109375 C 9.640625 -23.171875 8.394531 -21.882812 7.46875 -20.25 C 6.539062 -18.613281 6.078125 -16.742188 6.078125 -14.640625 C 6.078125 -12.546875 6.539062 -10.664062 7.46875 -9 C 8.394531 -7.332031 9.640625 -6.023438 11.203125 -5.078125 C 12.773438 -4.128906 14.539062 -3.65625 16.5 -3.65625 C 17.726562 -3.65625 18.945312 -3.882812 20.15625 -4.34375 C 21.375 -4.800781 22.488281 -5.5 23.5 -6.4375 C 24.507812 -7.375 25.304688 -8.570312 25.890625 -10.03125 L 14.8125 -10.03125 L 14.8125 -14.359375 L 30.96875 -14.359375 C 30.863281 -13.097656 30.753906 -12.039062 30.640625 -11.1875 C 30.523438 -10.332031 30.359375 -9.65625 30.140625 -9.15625 L 30.140625 -9.1875 C 29.460938 -7.289062 28.390625 -5.613281 26.921875 -4.15625 C 25.453125 -2.695312 23.800781 -1.554688 21.96875 -0.734375 C 20.132812 0.0859375 18.3125 0.5 16.5 0.5 C 14.394531 0.5 12.445312 0.128906 10.65625 -0.609375 C 8.863281 -1.347656 7.300781 -2.394531 5.96875 -3.75 C 4.644531 -5.113281 3.613281 -6.71875 2.875 -8.5625 C 2.132812 -10.40625 1.765625 -12.429688 1.765625 -14.640625 C 1.765625 -16.859375 2.140625 -18.894531 2.890625 -20.75 C 3.648438 -22.613281 4.703125 -24.222656 6.046875 -25.578125 C 7.390625 -26.929688 8.945312 -27.976562 10.71875 -28.71875 C 12.5 -29.46875 14.425781 -29.84375 16.5 -29.84375 C 17.925781 -29.84375 19.394531 -29.648438 20.90625 -29.265625 C 22.414062 -28.890625 23.84375 -28.28125 25.1875 -27.4375 C 26.53125 -26.601562 27.695312 -25.492188 28.6875 -24.109375 C 29.675781 -22.722656 30.367188 -21.035156 30.765625 -19.046875 Z M 26.140625 -19.046875 "/></g></g></g><g fill="#ffffff" fill-opacity="1"><g transform="translate(157.283074, 67.545072)"><g><path d="M 7.21875 -19.890625 C 8.03125 -21.035156 8.988281 -21.867188 10.09375 -22.390625 C 11.195312 -22.910156 12.378906 -23.171875 13.640625 -23.171875 C 14.085938 -23.171875 14.535156 -23.140625 14.984375 -23.078125 C 15.429688 -23.023438 15.878906 -22.941406 16.328125 -22.828125 L 16.328125 -19.21875 C 15.648438 -19.414062 14.953125 -19.515625 14.234375 -19.515625 C 12.972656 -19.515625 11.8125 -19.195312 10.75 -18.5625 C 9.6875 -17.9375 8.832031 -17.082031 8.1875 -16 C 7.539062 -14.925781 7.21875 -13.691406 7.21875 -12.296875 L 7.21875 0 L 3.140625 0 L 3.140625 -22.65625 L 7.21875 -22.65625 Z M 7.21875 -19.890625 "/></g></g></g><g fill="#ffffff" fill-opacity="1"><g transform="translate(174.908851, 67.545072)"><g><path d="M 26.65625 -11.328125 C 26.65625 -9.367188 26.3125 -7.65625 25.625 -6.1875 C 24.9375 -4.71875 24.003906 -3.492188 22.828125 -2.515625 C 21.648438 -1.535156 20.328125 -0.800781 18.859375 -0.3125 C 17.390625 0.175781 15.890625 0.421875 14.359375 0.421875 C 12.847656 0.421875 11.363281 0.175781 9.90625 -0.3125 C 8.445312 -0.800781 7.132812 -1.535156 5.96875 -2.515625 C 4.8125 -3.492188 3.890625 -4.71875 3.203125 -6.1875 C 2.523438 -7.65625 2.1875 -9.367188 2.1875 -11.328125 C 2.1875 -13.285156 2.523438 -15 3.203125 -16.46875 C 3.890625 -17.9375 4.820312 -19.160156 6 -20.140625 C 7.175781 -21.117188 8.5 -21.851562 9.96875 -22.34375 C 11.4375 -22.832031 12.941406 -23.078125 14.484375 -23.078125 C 16.015625 -23.078125 17.5 -22.832031 18.9375 -22.34375 C 20.382812 -21.851562 21.6875 -21.117188 22.84375 -20.140625 C 24.007812 -19.160156 24.9375 -17.9375 25.625 -16.46875 C 26.3125 -15 26.65625 -13.285156 26.65625 -11.328125 Z M 6.296875 -11.328125 C 6.296875 -9.535156 6.691406 -8.046875 7.484375 -6.859375 C 8.285156 -5.671875 9.304688 -4.773438 10.546875 -4.171875 C 11.796875 -3.578125 13.09375 -3.28125 14.4375 -3.28125 C 15.8125 -3.28125 17.113281 -3.578125 18.34375 -4.171875 C 19.570312 -4.773438 20.582031 -5.675781 21.375 -6.875 C 22.175781 -8.082031 22.578125 -9.566406 22.578125 -11.328125 C 22.578125 -13.117188 22.1875 -14.613281 21.40625 -15.8125 C 20.625 -17.019531 19.609375 -17.925781 18.359375 -18.53125 C 17.117188 -19.132812 15.828125 -19.4375 14.484375 -19.4375 C 13.109375 -19.4375 11.796875 -19.132812 10.546875 -18.53125 C 9.304688 -17.925781 8.285156 -17.03125 7.484375 -15.84375 C 6.691406 -14.65625 6.296875 -13.148438 6.296875 -11.328125 Z M 6.296875 -11.328125 "/></g></g></g><g fill="#ffffff" fill-opacity="1"><g transform="translate(204.033342, 67.545072)"><g><path d="M 7.390625 -19.765625 C 8.367188 -21.109375 9.535156 -21.992188 10.890625 -22.421875 C 12.242188 -22.859375 13.625 -23.078125 15.03125 -23.078125 C 17.601562 -23.078125 19.75 -22.53125 21.46875 -21.4375 C 23.1875 -20.351562 24.484375 -18.925781 25.359375 -17.15625 C 26.242188 -15.394531 26.6875 -13.492188 26.6875 -11.453125 C 26.6875 -9.390625 26.257812 -7.453125 25.40625 -5.640625 C 24.550781 -3.835938 23.253906 -2.382812 21.515625 -1.28125 C 19.785156 -0.175781 17.59375 0.375 14.9375 0.375 C 13.539062 0.34375 12.132812 0.0703125 10.71875 -0.4375 C 9.3125 -0.957031 8.203125 -1.832031 7.390625 -3.0625 L 7.390625 0 L 3.28125 0 L 3.28125 -29.375 L 7.390625 -29.375 Z M 7.390625 -11.375 C 7.390625 -9.550781 7.757812 -8.035156 8.5 -6.828125 C 9.238281 -5.628906 10.1875 -4.738281 11.34375 -4.15625 C 12.507812 -3.570312 13.722656 -3.28125 14.984375 -3.28125 C 16.660156 -3.28125 18.066406 -3.671875 19.203125 -4.453125 C 20.335938 -5.234375 21.179688 -6.238281 21.734375 -7.46875 C 22.296875 -8.695312 22.578125 -10 22.578125 -11.375 C 22.578125 -12.75 22.296875 -14.050781 21.734375 -15.28125 C 21.179688 -16.507812 20.34375 -17.515625 19.21875 -18.296875 C 18.101562 -19.078125 16.707031 -19.46875 15.03125 -19.46875 C 13.769531 -19.46875 12.550781 -19.164062 11.375 -18.5625 C 10.195312 -17.96875 9.238281 -17.070312 8.5 -15.875 C 7.757812 -14.6875 7.390625 -13.1875 7.390625 -11.375 Z M 7.390625 -11.375 "/></g></g><g transform="translate(232.612274, 67.545072)"><g><path d="M 3.140625 0 L 3.140625 -29.375 L 7.265625 -29.375 L 7.265625 0 Z M 3.140625 0 "/></g></g><g transform="translate(243.019874, 67.545072)"><g><path d="M 25.4375 -12.34375 C 25.457031 -12.226562 25.46875 -12.113281 25.46875 -12 C 25.46875 -11.882812 25.46875 -11.757812 25.46875 -11.625 C 25.46875 -11.175781 25.425781 -10.753906 25.34375 -10.359375 L 6.125 -10.359375 C 6.125 -8.878906 6.519531 -7.609375 7.3125 -6.546875 C 8.113281 -5.484375 9.109375 -4.664062 10.296875 -4.09375 C 11.492188 -3.519531 12.648438 -3.234375 13.765625 -3.234375 C 15.160156 -3.234375 16.46875 -3.539062 17.6875 -4.15625 C 18.90625 -4.769531 19.847656 -5.722656 20.515625 -7.015625 L 24.765625 -7.015625 C 24.203125 -5.359375 23.347656 -3.976562 22.203125 -2.875 C 21.054688 -1.769531 19.75 -0.941406 18.28125 -0.390625 C 16.8125 0.148438 15.289062 0.421875 13.71875 0.421875 C 12.269531 0.421875 10.84375 0.175781 9.4375 -0.3125 C 8.039062 -0.800781 6.78125 -1.535156 5.65625 -2.515625 C 4.539062 -3.492188 3.65625 -4.71875 3 -6.1875 C 2.34375 -7.65625 2.015625 -9.367188 2.015625 -11.328125 C 2.015625 -13.285156 2.34375 -14.992188 3 -16.453125 C 3.65625 -17.910156 4.539062 -19.128906 5.65625 -20.109375 C 6.78125 -21.085938 8.039062 -21.820312 9.4375 -22.3125 C 10.84375 -22.800781 12.300781 -23.046875 13.8125 -23.046875 C 15.6875 -23.046875 17.484375 -22.644531 19.203125 -21.84375 C 20.921875 -21.050781 22.351562 -19.863281 23.5 -18.28125 C 24.644531 -16.695312 25.289062 -14.71875 25.4375 -12.34375 Z M 21.109375 -13.765625 C 20.859375 -15.140625 20.363281 -16.238281 19.625 -17.0625 C 18.882812 -17.882812 18 -18.484375 16.96875 -18.859375 C 15.945312 -19.242188 14.894531 -19.4375 13.8125 -19.4375 C 12.71875 -19.4375 11.644531 -19.242188 10.59375 -18.859375 C 9.539062 -18.484375 8.628906 -17.875 7.859375 -17.03125 C 7.097656 -16.195312 6.578125 -15.109375 6.296875 -13.765625 Z M 21.109375 -13.765625 "/></g></g></g><g fill="#ffffff" fill-opacity="1"><g transform="translate(270.717514, 67.545072)"><g><path d="M 6 -16.15625 C 6 -15.457031 6.171875 -14.910156 6.515625 -14.515625 C 6.867188 -14.128906 7.328125 -13.851562 7.890625 -13.6875 C 8.453125 -13.519531 9.03125 -13.410156 9.625 -13.359375 C 10.226562 -13.316406 10.785156 -13.285156 11.296875 -13.265625 C 12.359375 -13.179688 13.425781 -13.019531 14.5 -12.78125 C 15.570312 -12.539062 16.554688 -12.175781 17.453125 -11.6875 C 18.347656 -11.195312 19.066406 -10.523438 19.609375 -9.671875 C 20.160156 -8.816406 20.4375 -7.75 20.4375 -6.46875 C 20.4375 -5.144531 20.148438 -4.039062 19.578125 -3.15625 C 19.003906 -2.28125 18.25 -1.582031 17.3125 -1.0625 C 16.375 -0.550781 15.34375 -0.1875 14.21875 0.03125 C 13.101562 0.257812 12.015625 0.375 10.953125 0.375 C 9.390625 0.375 7.914062 0.140625 6.53125 -0.328125 C 5.144531 -0.804688 4.003906 -1.582031 3.109375 -2.65625 C 2.210938 -3.738281 1.707031 -5.175781 1.59375 -6.96875 L 5.703125 -6.96875 C 5.785156 -5.707031 6.34375 -4.757812 7.375 -4.125 C 8.414062 -3.5 9.632812 -3.1875 11.03125 -3.1875 C 11.738281 -3.1875 12.492188 -3.273438 13.296875 -3.453125 C 14.109375 -3.640625 14.816406 -3.976562 15.421875 -4.46875 C 16.023438 -4.957031 16.328125 -5.648438 16.328125 -6.546875 C 16.328125 -7.191406 16.132812 -7.703125 15.75 -8.078125 C 15.375 -8.453125 14.894531 -8.742188 14.3125 -8.953125 C 13.726562 -9.171875 13.125 -9.320312 12.5 -9.40625 C 11.882812 -9.488281 11.328125 -9.539062 10.828125 -9.5625 C 9.816406 -9.625 8.785156 -9.757812 7.734375 -9.96875 C 6.691406 -10.175781 5.726562 -10.515625 4.84375 -10.984375 C 3.96875 -11.460938 3.265625 -12.113281 2.734375 -12.9375 C 2.203125 -13.769531 1.9375 -14.816406 1.9375 -16.078125 C 1.9375 -17.835938 2.378906 -19.234375 3.265625 -20.265625 C 4.160156 -21.304688 5.304688 -22.050781 6.703125 -22.5 C 8.109375 -22.945312 9.539062 -23.171875 11 -23.171875 C 12.507812 -23.171875 13.90625 -22.945312 15.1875 -22.5 C 16.476562 -22.050781 17.539062 -21.335938 18.375 -20.359375 C 19.21875 -19.378906 19.679688 -18.09375 19.765625 -16.5 L 15.703125 -16.5 C 15.585938 -17.5 15.0625 -18.242188 14.125 -18.734375 C 13.1875 -19.222656 12.101562 -19.46875 10.875 -19.46875 C 9.613281 -19.46875 8.484375 -19.207031 7.484375 -18.6875 C 6.492188 -18.175781 6 -17.332031 6 -16.15625 Z M 6 -16.15625 "/></g></g></g><g fill="#ffffff" fill-opacity="1"><g transform="translate(131.204655, 88.292022)"><g><path d="M 2.578125 0 L 1.125 0 L 1.125 -8.578125 L 2.578125 -8.578125 Z M 2.578125 0 "/></g></g></g><g fill="#ffffff" fill-opacity="1"><g transform="translate(137.74244, 88.292022)"><g><path d="M 6.984375 -7.28125 L 4.265625 -7.28125 L 4.265625 0 L 2.8125 0 L 2.8125 -7.28125 L 0.109375 -7.28125 L 0.109375 -8.578125 L 6.984375 -8.578125 Z M 6.984375 -7.28125 "/></g></g></g><g fill="#ffffff" fill-opacity="1"><g transform="translate(147.669644, 88.292022)"><g/></g></g><g fill="#ffffff" fill-opacity="1"><g transform="translate(153.669031, 88.292022)"><g><path d="M 3.9375 -8.640625 C 5.050781 -8.640625 6.054688 -8.34375 6.953125 -7.75 L 6.34375 -6.484375 C 5.46875 -7.015625 4.628906 -7.28125 3.828125 -7.28125 C 3.398438 -7.28125 3.0625 -7.203125 2.8125 -7.046875 C 2.5625 -6.890625 2.4375 -6.664062 2.4375 -6.375 C 2.4375 -6.09375 2.550781 -5.851562 2.78125 -5.65625 C 3.007812 -5.457031 3.296875 -5.3125 3.640625 -5.21875 C 3.984375 -5.125 4.351562 -5.003906 4.75 -4.859375 C 5.15625 -4.710938 5.523438 -4.5625 5.859375 -4.40625 C 6.203125 -4.25 6.488281 -4 6.71875 -3.65625 C 6.945312 -3.3125 7.0625 -2.898438 7.0625 -2.421875 C 7.0625 -1.671875 6.757812 -1.070312 6.15625 -0.625 C 5.550781 -0.175781 4.773438 0.046875 3.828125 0.046875 C 3.171875 0.046875 2.535156 -0.0703125 1.921875 -0.3125 C 1.304688 -0.5625 0.769531 -0.894531 0.3125 -1.3125 L 0.9375 -2.5625 C 1.375 -2.15625 1.847656 -1.84375 2.359375 -1.625 C 2.878906 -1.414062 3.375 -1.3125 3.84375 -1.3125 C 4.351562 -1.3125 4.75 -1.398438 5.03125 -1.578125 C 5.3125 -1.765625 5.453125 -2.023438 5.453125 -2.359375 C 5.453125 -2.648438 5.335938 -2.894531 5.109375 -3.09375 C 4.878906 -3.289062 4.59375 -3.4375 4.25 -3.53125 C 3.90625 -3.625 3.53125 -3.738281 3.125 -3.875 C 2.726562 -4.007812 2.359375 -4.148438 2.015625 -4.296875 C 1.671875 -4.453125 1.382812 -4.695312 1.15625 -5.03125 C 0.9375 -5.363281 0.828125 -5.769531 0.828125 -6.25 C 0.828125 -6.976562 1.109375 -7.554688 1.671875 -7.984375 C 2.242188 -8.421875 3 -8.640625 3.9375 -8.640625 Z M 3.9375 -8.640625 "/></g></g></g><g fill="#ffffff" fill-opacity="1"><g transform="translate(164.122398, 88.292022)"><g><path d="M 1.71875 -7.359375 C 2.59375 -8.191406 3.671875 -8.609375 4.953125 -8.609375 C 6.242188 -8.609375 7.320312 -8.191406 8.1875 -7.359375 C 9.0625 -6.535156 9.5 -5.507812 9.5 -4.28125 C 9.5 -3.0625 9.0625 -2.03125 8.1875 -1.1875 C 7.320312 -0.351562 6.242188 0.0625 4.953125 0.0625 C 3.671875 0.0625 2.59375 -0.351562 1.71875 -1.1875 C 0.851562 -2.03125 0.421875 -3.0625 0.421875 -4.28125 C 0.421875 -5.507812 0.851562 -6.535156 1.71875 -7.359375 Z M 4.96875 -7.3125 C 4.125 -7.3125 3.398438 -7.019531 2.796875 -6.4375 C 2.191406 -5.851562 1.890625 -5.132812 1.890625 -4.28125 C 1.890625 -3.4375 2.191406 -2.71875 2.796875 -2.125 C 3.410156 -1.53125 4.132812 -1.234375 4.96875 -1.234375 C 5.8125 -1.234375 6.53125 -1.53125 7.125 -2.125 C 7.726562 -2.71875 8.03125 -3.4375 8.03125 -4.28125 C 8.03125 -5.132812 7.726562 -5.851562 7.125 -6.4375 C 6.53125 -7.019531 5.8125 -7.3125 4.96875 -7.3125 Z M 4.96875 -7.3125 "/></g></g></g><g fill="#ffffff" fill-opacity="1"><g transform="translate(176.876163, 88.292022)"><g><path d="M 2.578125 -1.3125 L 6.28125 -1.3125 L 6.28125 0 L 1.125 0 L 1.125 -8.578125 L 2.578125 -8.578125 Z M 2.578125 -1.3125 "/></g></g></g><g fill="#ffffff" fill-opacity="1"><g transform="translate(186.252744, 88.292022)"><g><path d="M 8.421875 -8.578125 L 8.421875 -3.546875 C 8.421875 -2.429688 8.085938 -1.550781 7.421875 -0.90625 C 6.765625 -0.257812 5.851562 0.0625 4.6875 0.0625 C 3.53125 0.0625 2.617188 -0.257812 1.953125 -0.90625 C 1.285156 -1.550781 0.953125 -2.429688 0.953125 -3.546875 L 0.953125 -8.578125 L 2.40625 -8.578125 L 2.40625 -3.546875 C 2.40625 -2.828125 2.609375 -2.257812 3.015625 -1.84375 C 3.429688 -1.4375 3.992188 -1.234375 4.703125 -1.234375 C 5.398438 -1.234375 5.953125 -1.4375 6.359375 -1.84375 C 6.765625 -2.257812 6.96875 -2.828125 6.96875 -3.546875 L 6.96875 -8.578125 Z M 8.421875 -8.578125 "/></g></g></g><g fill="#ffffff" fill-opacity="1"><g transform="translate(198.443651, 88.292022)"><g><path d="M 6.984375 -7.28125 L 4.265625 -7.28125 L 4.265625 0 L 2.8125 0 L 2.8125 -7.28125 L 0.109375 -7.28125 L 0.109375 -8.578125 L 6.984375 -8.578125 Z M 6.984375 -7.28125 "/></g></g></g><g fill="#ffffff" fill-opacity="1"><g transform="translate(208.370855, 88.292022)"><g><path d="M 2.578125 0 L 1.125 0 L 1.125 -8.578125 L 2.578125 -8.578125 Z M 2.578125 0 "/></g></g></g><g fill="#ffffff" fill-opacity="1"><g transform="translate(214.908641, 88.292022)"><g><path d="M 1.71875 -7.359375 C 2.59375 -8.191406 3.671875 -8.609375 4.953125 -8.609375 C 6.242188 -8.609375 7.320312 -8.191406 8.1875 -7.359375 C 9.0625 -6.535156 9.5 -5.507812 9.5 -4.28125 C 9.5 -3.0625 9.0625 -2.03125 8.1875 -1.1875 C 7.320312 -0.351562 6.242188 0.0625 4.953125 0.0625 C 3.671875 0.0625 2.59375 -0.351562 1.71875 -1.1875 C 0.851562 -2.03125 0.421875 -3.0625 0.421875 -4.28125 C 0.421875 -5.507812 0.851562 -6.535156 1.71875 -7.359375 Z M 4.96875 -7.3125 C 4.125 -7.3125 3.398438 -7.019531 2.796875 -6.4375 C 2.191406 -5.851562 1.890625 -5.132812 1.890625 -4.28125 C 1.890625 -3.4375 2.191406 -2.71875 2.796875 -2.125 C 3.410156 -1.53125 4.132812 -1.234375 4.96875 -1.234375 C 5.8125 -1.234375 6.53125 -1.53125 7.125 -2.125 C 7.726562 -2.71875 8.03125 -3.4375 8.03125 -4.28125 C 8.03125 -5.132812 7.726562 -5.851562 7.125 -6.4375 C 6.53125 -7.019531 5.8125 -7.3125 4.96875 -7.3125 Z M 4.96875 -7.3125 "/></g></g></g><g fill="#ffffff" fill-opacity="1"><g transform="translate(227.662405, 88.292022)"><g><path d="M 8.5625 0 L 7.140625 0 L 2.578125 -6.15625 L 2.578125 0 L 1.125 0 L 1.125 -8.578125 L 2.546875 -8.578125 L 7.140625 -2.40625 L 7.140625 -8.578125 L 8.5625 -8.578125 Z M 8.5625 0 "/></g></g></g><g fill="#ffffff" fill-opacity="1"><g transform="translate(240.195929, 88.292022)"><g><path d="M 3.9375 -8.640625 C 5.050781 -8.640625 6.054688 -8.34375 6.953125 -7.75 L 6.34375 -6.484375 C 5.46875 -7.015625 4.628906 -7.28125 3.828125 -7.28125 C 3.398438 -7.28125 3.0625 -7.203125 2.8125 -7.046875 C 2.5625 -6.890625 2.4375 -6.664062 2.4375 -6.375 C 2.4375 -6.09375 2.550781 -5.851562 2.78125 -5.65625 C 3.007812 -5.457031 3.296875 -5.3125 3.640625 -5.21875 C 3.984375 -5.125 4.351562 -5.003906 4.75 -4.859375 C 5.15625 -4.710938 5.523438 -4.5625 5.859375 -4.40625 C 6.203125 -4.25 6.488281 -4 6.71875 -3.65625 C 6.945312 -3.3125 7.0625 -2.898438 7.0625 -2.421875 C 7.0625 -1.671875 6.757812 -1.070312 6.15625 -0.625 C 5.550781 -0.175781 4.773438 0.046875 3.828125 0.046875 C 3.171875 0.046875 2.535156 -0.0703125 1.921875 -0.3125 C 1.304688 -0.5625 0.769531 -0.894531 0.3125 -1.3125 L 0.9375 -2.5625 C 1.375 -2.15625 1.847656 -1.84375 2.359375 -1.625 C 2.878906 -1.414062 3.375 -1.3125 3.84375 -1.3125 C 4.351562 -1.3125 4.75 -1.398438 5.03125 -1.578125 C 5.3125 -1.765625 5.453125 -2.023438 5.453125 -2.359375 C 5.453125 -2.648438 5.335938 -2.894531 5.109375 -3.09375 C 4.878906 -3.289062 4.59375 -3.4375 4.25 -3.53125 C 3.90625 -3.625 3.53125 -3.738281 3.125 -3.875 C 2.726562 -4.007812 2.359375 -4.148438 2.015625 -4.296875 C 1.671875 -4.453125 1.382812 -4.695312 1.15625 -5.03125 C 0.9375 -5.363281 0.828125 -5.769531 0.828125 -6.25 C 0.828125 -6.976562 1.109375 -7.554688 1.671875 -7.984375 C 2.242188 -8.421875 3 -8.640625 3.9375 -8.640625 Z M 3.9375 -8.640625 "/></g></g></g><g clip-path="url(#2269f7c401)"><path fill="#ffffff" d="M 110.742188 55.808594 C 110.746094 55.769531 110.738281 55.734375 110.726562 55.699219 C 110.722656 55.699219 110.726562 55.695312 110.722656 55.691406 L 100.492188 28.921875 C 100.492188 28.917969 100.488281 28.914062 100.488281 28.910156 C 100.46875 28.871094 100.445312 28.832031 100.410156 28.804688 L 77.910156 10.96875 C 77.875 10.941406 77.832031 10.921875 77.785156 10.914062 C 77.78125 10.914062 77.777344 10.914062 77.773438 10.914062 L 59.410156 8.421875 C 59.375 8.417969 59.335938 8.421875 59.300781 8.429688 L 50.546875 10.910156 L 50.296875 10.910156 C 50.246094 10.910156 50.199219 10.925781 50.160156 10.949219 L 49.9375 11.082031 L 28.390625 17.183594 C 28.382812 17.1875 28.378906 17.191406 28.375 17.195312 C 28.34375 17.207031 28.320312 17.222656 28.292969 17.242188 C 28.285156 17.25 28.273438 17.257812 28.265625 17.265625 C 28.261719 17.269531 28.257812 17.273438 28.25 17.277344 L 9.386719 41.683594 C 9.378906 41.691406 9.378906 41.699219 9.371094 41.707031 C 9.367188 41.71875 9.359375 41.730469 9.351562 41.742188 C 9.351562 41.75 9.347656 41.757812 9.347656 41.765625 C 9.339844 41.777344 9.339844 41.792969 9.335938 41.808594 C 9.335938 41.816406 9.332031 41.824219 9.328125 41.832031 L 8.140625 63.296875 C 8.140625 63.316406 8.140625 63.335938 8.144531 63.355469 L 9.882812 74.210938 C 9.886719 74.222656 9.894531 74.234375 9.898438 74.25 C 9.902344 74.257812 9.898438 74.269531 9.902344 74.277344 C 9.90625 74.28125 9.90625 74.28125 9.910156 74.285156 C 9.910156 74.285156 9.910156 74.289062 9.910156 74.292969 L 18.695312 90.964844 C 18.710938 90.992188 18.730469 91.019531 18.753906 91.039062 L 29.058594 100.117188 C 29.074219 100.136719 29.09375 100.152344 29.113281 100.164062 L 41.027344 108.167969 C 41.058594 108.1875 41.09375 108.203125 41.136719 108.207031 L 59.824219 111.105469 L 59.828125 111.105469 C 59.828125 111.105469 59.828125 111.105469 59.832031 111.105469 C 59.84375 111.109375 59.859375 111.109375 59.875 111.109375 C 59.890625 111.109375 59.910156 111.105469 59.929688 111.101562 C 59.929688 111.101562 59.929688 111.101562 59.933594 111.101562 C 59.933594 111.101562 59.933594 111.101562 59.9375 111.101562 L 59.941406 111.101562 C 59.941406 111.101562 59.941406 111.097656 59.941406 111.097656 C 59.941406 111.101562 59.945312 111.097656 59.945312 111.097656 L 90.488281 102.203125 C 90.5 102.199219 90.507812 102.1875 90.515625 102.183594 C 90.546875 102.171875 90.570312 102.152344 90.59375 102.132812 C 90.601562 102.121094 90.617188 102.121094 90.625 102.109375 L 109.207031 77.6875 C 109.238281 77.648438 109.25 77.605469 109.253906 77.558594 C 109.257812 77.554688 109.261719 77.550781 109.261719 77.546875 Z M 108.738281 77.316406 L 100.703125 79.339844 L 110.097656 57.355469 Z M 76.128906 74.199219 L 46.519531 63.816406 L 68.851562 47.789062 Z M 68.855469 46.925781 L 46.582031 32.410156 L 75.539062 24.15625 Z M 68.535156 47.359375 L 46.214844 63.378906 L 46.214844 32.808594 Z M 45.675781 63.46875 L 20.34375 51.078125 L 45.675781 32.839844 Z M 51.160156 93.175781 L 27.011719 79.691406 L 45.761719 64.394531 Z M 46.292969 64.308594 L 75.96875 74.710938 L 51.714844 93.210938 Z M 76.292969 75.140625 L 77.859375 97.261719 L 52.199219 93.515625 Z M 76.636719 74.015625 L 69.375 47.652344 L 94.078125 50.113281 Z M 94.421875 50.554688 L 99.902344 79.382812 L 76.988281 74.449219 Z M 100.339844 78.816406 L 94.925781 50.3125 L 110.113281 55.941406 Z M 94.460938 49.277344 L 76.554688 24.171875 L 99.910156 29.21875 Z M 94.011719 49.570312 L 69.359375 47.113281 L 76.035156 24.367188 Z M 46.296875 31.933594 L 50.492188 11.570312 L 75.191406 23.695312 Z M 45.742188 31.964844 L 26.796875 25.648438 L 49.910156 11.726562 Z M 45.363281 32.402344 L 20.261719 50.476562 L 26.347656 26.066406 Z M 19.671875 50.621094 L 9.988281 41.839844 L 25.667969 26.574219 Z M 25.917969 25.578125 L 12.144531 38.992188 L 27.835938 18.695312 Z M 19.5 51.195312 L 10.394531 72.882812 L 9.878906 42.464844 Z M 19.75 51.992188 L 26.164062 79.324219 L 10.507812 74.007812 Z M 20.214844 51.613281 L 45.449219 63.957031 L 26.699219 79.25 Z M 50.832031 93.605469 L 29.484375 99.597656 L 26.875 80.226562 Z M 51.386719 94.007812 L 59.34375 110.367188 L 30.144531 99.96875 Z M 59.972656 110.433594 L 51.996094 94.027344 L 77.457031 97.742188 Z M 78.382812 97.042969 L 76.820312 74.960938 L 99.636719 79.875 Z M 99.546875 80.636719 L 90.269531 101.609375 L 78.691406 97.480469 Z M 100.4375 79.960938 L 108.316406 77.972656 L 91.585938 99.964844 Z M 94.894531 49.726562 L 100.285156 29.882812 L 110.011719 55.332031 Z M 77.9375 11.679688 L 99.171875 28.511719 L 76.234375 23.554688 Z M 59.394531 8.960938 L 73.765625 10.910156 L 52.515625 10.910156 Z M 77.429688 11.445312 L 75.71875 23.359375 L 51.453125 11.445312 Z M 26.597656 25.140625 L 28.683594 17.660156 L 48.191406 12.136719 Z M 8.679688 63.296875 L 9.457031 49.285156 L 9.816406 70.386719 Z M 19.148438 90.671875 L 12.019531 77.140625 L 27.527344 98.054688 Z M 10.875 74.699219 L 26.292969 79.933594 L 28.855469 98.941406 Z M 31.179688 100.90625 L 57.109375 110.140625 L 41.277344 107.6875 Z M 78.191406 97.875 L 89.542969 101.921875 L 61.277344 110.152344 Z M 78.191406 97.875 " fill-opacity="1" fill-rule="nonzero"/></g><g fill="#ffffff" fill-opacity="1"><g transform="translate(32.537946, 84.90881)"><g><path d="M 49.25 0 L 45.46875 0 C 44.84375 0 44.53125 -0.285156 44.53125 -0.859375 L 44.609375 -5.78125 C 40.421875 -1.59375 34.84375 0.5 27.875 0.5 C 20.90625 0.5 15.085938 -1.925781 10.421875 -6.78125 C 5.753906 -11.632812 3.421875 -18.007812 3.421875 -25.90625 C 3.421875 -31.1875 4.597656 -35.828125 6.953125 -39.828125 C 9.304688 -43.828125 12.300781 -46.800781 15.9375 -48.75 C 19.582031 -50.695312 23.523438 -51.671875 27.765625 -51.671875 C 35.046875 -51.671875 40.28125 -49.410156 43.46875 -44.890625 L 43.390625 -50.390625 C 43.296875 -50.960938 43.582031 -51.25 44.25 -51.25 L 48.25 -51.25 C 48.863281 -51.25 49.171875 -50.960938 49.171875 -50.390625 L 49.171875 -35.6875 C 49.171875 -35.113281 48.863281 -34.828125 48.25 -34.828125 L 43.75 -34.828125 C 43.175781 -34.828125 42.890625 -35.113281 42.890625 -35.6875 L 42.890625 -36.546875 C 42.890625 -38.640625 41.453125 -40.707031 38.578125 -42.75 C 35.703125 -44.800781 32.023438 -45.828125 27.546875 -45.828125 C 23.078125 -45.828125 19.046875 -43.984375 15.453125 -40.296875 C 11.859375 -36.609375 10.0625 -31.679688 10.0625 -25.515625 C 10.0625 -19.359375 11.867188 -14.484375 15.484375 -10.890625 C 19.097656 -7.296875 23.140625 -5.5 27.609375 -5.5 C 32.085938 -5.5 35.625 -6.210938 38.21875 -7.640625 C 40.8125 -9.066406 42.75 -10.753906 44.03125 -12.703125 L 44.03125 -18.265625 L 30.765625 -18.265625 C 30.191406 -18.265625 29.90625 -18.578125 29.90625 -19.203125 L 29.90625 -22.484375 C 29.90625 -23.054688 30.191406 -23.34375 30.765625 -23.34375 L 49.25 -23.34375 C 49.820312 -23.34375 50.109375 -23.054688 50.109375 -22.484375 L 50.109375 -0.859375 C 50.109375 -0.285156 49.820312 0 49.25 0 Z M 49.25 0 "/></g></g></g></svg>